<?xml version="1.0" encoding="utf-8"?>
<!-- Generator: Adobe Illustrator 21.1.0, SVG Export Plug-In . SVG Version: 6.00 Build 0)  -->
<svg version="1.1" id="Layer_1" xmlns="http://www.w3.org/2000/svg" xmlns:xlink="http://www.w3.org/1999/xlink" x="0px" y="0px"
	 viewBox="0 0 3380.6 1304.2" style="enable-background:new 0 0 3380.6 1304.2;" xml:space="preserve">
<style type="text/css">
	.st0{fill:#DF4723;stroke:#DF4723;stroke-width:9.400000e-02;}
	.st1{fill:#FFFFFF;}
</style>
<path class="st0" d="M1247.8,65.9c6,2.8,9.8,8.6,14.6,13.2c7.8,6.8,13.6,15.8,21.2,22.8c9.4,9,15.4,20.4,23.2,30.6
	c13.6,20.6,25.6,42.7,31.8,66.7c6.4,16.4,7.4,34.2,7,51.9c0.4,16-4,31.8-11.2,46.3c-12.4,21.8-34.8,36.4-58.3,44.3
	c-29.2,7-61.5,8.2-89.7-4.2c-10.2-5.6-21.8-9.4-30-18.2c-19-15.6-30-41.1-26.4-65.7c5.6-43.9,31.8-81.5,59.9-113.9
	c2.6,4.8,0.4,10.4,2.2,15.4c2.4,10.6,6.2,21.8,14.2,29.4c9.8-9,20.2-18,28.6-28.4c7.6-11.2,13.8-23.6,16.4-36.8
	c0.6-16.8,2.2-34.4-4.2-50.5L1247.8,65.9z M880.9,596.6c46.9,0.4,93.9-0.4,140.8,0.4c0,46.7,0.4,93.3-0.2,140
	c33.2,0.6,66.5,0.2,99.9,0.2c0.4,3.6,0.6,7.2,0.6,10.8c-0.4,38.5,0.2,76.7-0.4,115.2c-33.4,0.4-66.7,0-100.1,0.2
	c0.6,69.1-0.2,138,0.4,207.1c1.2,6,2,12,1.8,18.2c-0.6,5.6,2.8,10.2,4,15.4c2.6,12,9.2,22.8,16.8,32.2c11.2,11.2,25.6,19,41.1,22.4
	c14,2.2,28,3.4,42.3,2.4c0.8,2.4,1.2,4.8,1.2,7.4c-0.2,36-0.2,72.1,0,107.9c0,5-1,10-1.8,14.8c-20.2,0-40.5,1.4-60.7,0
	c-12-2.6-24.8-1.4-36.4-6.6c-32.2-7.6-63.1-23.6-86.1-47.9c-33.8-32.6-52.1-78.7-59.5-124.4c-2-5-0.8-10.8-1.6-16.2
	c-2.8-11-1.6-22.6-2-33.8C880.7,907.2,880.7,751.8,880.9,596.6z M1565,726.3c8.4-2.2,17.4-0.6,25.8-2.4c17.6-2.2,35,0.6,52.5,1.2
	c12.2-0.2,24,3.4,36,5.8c44.7,10.8,86.9,34.6,117.6,69.5c5.4,9,13.6,15.6,18.8,24.8c13,20.6,21.6,43.7,29,66.9
	c4.6,17,7,34.6,9.2,52.1c1,38.7,0.4,77.5,0.6,116.2c-0.2,77.1,0.2,154.2-0.2,231.3c-46.9-0.6-93.5-0.2-140.2-0.4
	c-0.4-0.2-1.4-1-1.8-1.4c-0.2-107.9,0-215.9,0-323.6c0.2-13.2-2.2-26-5-38.7c-5-12.8-11.4-25-20.2-35.4
	c-5.2-6.2-12.4-10.2-18.2-15.6c-9-6-19.6-8.8-29.8-11.6c-5.4-0.4-10.8,0-15.8-1.8c-21.4-1.4-43.3,0.4-63.3,8.6
	c-14.6,7-28.2,16.6-37.8,30c-15.8,18.8-21,44.5-20.6,68.5c0,106.9,0.2,214.1,0,321c-47.3,0.4-94.5-0.2-141.8,0.4
	c-0.8-103.1,0-206.5-0.4-309.6c0.2-13.2-0.2-26.4,0.8-39.7c2.6-6.6,0.8-13.8,2.8-20.2c3.6-24.4,12.8-47.7,23-69.9
	c10-19.4,22-38,37.6-53.5c12.2-12.4,24.8-25.4,40.3-34C1493.7,743.9,1528.9,731.3,1565,726.3z M3243.2,725.1
	c17.4-0.4,34.6-3.8,52.1-1c9.4,1.2,19,1,28.4,1.4c1.8,17.4,0.4,35,0.8,52.5v70.1c0,4.4,0.6,9-1.2,13.2c-4.6-3.4-10.8-2.2-16-3.6
	c-21.2-1.8-43.1-0.8-63.1,7.2c-23.8,8.2-44.7,25.6-56.3,48.3c-3.4,4.2-3.4,10.2-7.2,14.2c-6.2,22.4-6.6,45.9-6.2,68.9
	c-0.2,98.5,0.6,196.9-0.4,295.4c-46.7-0.6-93.5,0-140.4-0.4c-0.4-0.4-1-1.2-1.4-1.6V968.2c-0.6-13.4,2.4-26.4,2.2-39.7
	c3.2-6.4,2.4-13.8,4.4-20.4c10-50.7,36.6-98.5,77.1-131.2c7.8-8.8,19-13,28.2-20C3174.1,738.7,3208.7,729.9,3243.2,725.1z
	 M1167.5,736.9c47.3,0.8,94.5-0.2,141.8,0.4c0,183.2-0.2,366.3,0,549.3c0,1.8,0,5.4-2.8,4.8h-138.6c-1.2-30.2-0.2-60.7-0.6-90.9
	C1167.5,1046.1,1167.3,891.5,1167.5,736.9L1167.5,736.9z M2650.4,1108.6c12-4.6,23.6-10.6,35.8-14.8c17.6-6.8,34.8-15,52.5-21.8
	c36.4-16.8,74.1-30.8,110.9-46.7c8.8-4.8,18.8-7,27.4-12.2c9.8-3.8,19.6-7.2,29.2-11.6c8.4-5,18-7,26.6-11.4
	c11.4-4.6,22.4-9.8,34-14c11.8-6.6,25-9.8,36.8-16.2c3.2-2.2,8.4-1.6,10.4-5.4c-3.4-4.8-1.6-10.8-3.4-16c-2.6-9.4-5.2-18.6-7.4-27.8
	c-9-27.8-22-54.5-39.7-77.7c-21.4-31-50.9-56.1-83.5-74.5c-21.4-13-45.5-20.4-69.5-26.8c-14.8-1.8-29-7-44.1-6.8
	c-13.6-1.8-27.6-2.6-41.1-0.2c-23.8,0.4-46.7,6.2-69.3,12.8c-39.5,13.8-76.9,34.8-107.1,63.9c-9,8.4-16.4,18.2-25,26.8
	c-13.4,17.2-25.6,35.4-34.8,55.1c-13,29.4-25.4,60.3-26.8,92.9c-4.4,15.6-3,32-3.2,48.1c-0.4,10.2,1.2,20.2,3.2,30
	c-0.6,10.4,3.4,20,4.8,30c3.4,21.2,12.8,40.9,21.4,60.5c23.6,48.5,60.9,90.5,107.5,118c30.6,18.8,64.7,32.2,100.3,37.2
	c29,4.6,58.9,5.4,88.1,1.6c10,0.8,19.6-3.6,29.6-4.2c42.7-10,84.5-28,116.8-58.3c9.6-7.6,18.6-16.6,26.2-26.2
	c12.8-13,22-28.8,31.2-44.5c8.8-16.6,16-34.2,21.2-52.5c-2.8-1.2-6-0.8-8.8-0.8c-46.9,0.2-93.5-0.2-140.4,0c-4.4,0-4.4,6-7.2,8.4
	c-8,11.6-18.2,21.4-29,30.6c-15.6,11.2-34,17.2-52.3,22.6c-4.8,0.6-9.4,0.4-13.8,2.2c-11.2,0.8-22.6,0.4-34,0.2
	c-12.6-2.4-25.2-5.2-37.4-9.2c-18.8-9.6-37.2-20.6-51.5-36.2c-3.6-4.4-9.4-7.8-10.6-13.6c3.2-1.4,6.2-3.6,9.8-4.2
	C2640.4,1114.8,2644.8,1110.2,2650.4,1108.6L2650.4,1108.6z M2592.7,1007.3c-2.8-7-0.2-15.2-0.6-22.6c3.2-10.2,4.2-21,8-31.2
	c9.6-22.6,21.4-44.9,38.7-62.7c8-6.6,14.8-14.6,24-19.6c6.8-3.6,13.4-7.6,20.4-10.8c13-3.8,25.6-9.8,39.3-9.8
	c12.4-3,25.2-1.4,37.8-1.2c33,4.6,66.3,18.8,87.7,45.1c2.2,5.2-5.2,5.6-8.2,7.6c-13,7.2-27.6,10.8-40.7,18.2
	c-5.8,1-10.8,4.6-16.4,6.4c-41.5,18-83.7,33.8-124.8,52.7C2636,987.9,2614.2,997.1,2592.7,1007.3L2592.7,1007.3z M2443.5,492.2
	c-43.9-0.4-87.7,0-131.6-0.2c-3.2,0.4-7-1-9.6,1.4c0.4,94.1,0,188.4,0.2,282.6c-0.2,3.4,0.6,6.8-0.8,10c-4-0.6-6-4.4-9-6.6
	c-20.2-17.4-42.9-32.2-68.1-40.9c-17-6.6-34.8-10-52.9-13.2c-20.4-0.4-41.1-1-61.7,0.2c-2.2,0.6-4.2,1.2-6.4,1.4
	c-45.9,6.4-88.7,27.8-124,57.3c-19.6,18.4-39.3,37.6-53.1,60.9c-16.2,23-26.6,49.5-36.6,75.5c-4.6,16.4-9.2,32.6-11.2,49.5
	c-3.8,25.8-2.2,52.3-1.8,78.3c1,6.8,3.2,13.2,3.4,20c3.6,22,10,43.7,18.8,64.3c7.4,19.8,19.4,37.8,30.4,55.9
	c7.8,10,15.4,20.4,24.8,29.2c14,13.8,27.8,28.8,45.5,38.5c20.8,15.8,45.5,25.2,69.5,34.4c8.8,1.6,17,6.6,26,6.8
	c7.6,0.6,14.6,4.2,22.2,3.8c4-0.4,7.6,2.4,11.8,2c19.4,0.6,39.1,0.6,58.5,0c3.2,0,6.4-1.4,9.8-1.6c13.4,0.2,25.8-5,38.8-6.8
	c17-6.2,35.2-10.2,51.1-19.4c23.4-10.8,44.7-26,63.7-43.3c24-20.8,43.5-46.9,57.9-75.3c6.2-12.6,13.2-24.8,17.2-38.5
	c7.6-18.8,11-38.9,13.6-58.7c4.4-17.4,3-35.6,3.4-53.7C2443.5,834.9,2443.5,663.6,2443.5,492.2L2443.5,492.2z M2301.2,1034.5
	c-1.2,21.2-9.2,41.5-18.6,60.5c-15.8,29.8-42.5,52.7-72.7,67.1c-4.6,2.4-10.6,2.2-13.8,6.6c-5.6,0-11.2,0.2-16.6,2.2
	c-17.2,0.4-35,2-51.9-2.8c-7.2-3.4-15.2-4.8-22.4-8.6c-9-5-19.2-8.4-26.6-16c-14-9.8-24.8-23.2-34.6-37
	c-7.8-13.4-15.6-27.2-19.2-42.5c-4-8-3.6-17-5.8-25.4c-0.6-21.4-1.8-43.5,3.2-64.3c2.2-6.6,3.6-13.6,6-20.2c5.8-10.6,9.4-22.4,17-32
	c4-8.4,11-14.6,16.6-21.8c15-17.2,35.6-28.2,56.5-36.8c7.8-1.8,15.4-5.8,23.6-5.8c16.6-4.2,33.8-0.8,50.3,2.2
	c21.6,7.8,43.1,18.6,59.9,34.6c6.2,5.8,10.8,13,17,18.8C2294.5,947.6,2306.4,991.9,2301.2,1034.5z M3242,1221.2h52.5
	c0.2,4,0.2,8,0,12c-6,0.8-12-0.2-17.8,0.6c-0.8,18,0,35.8-0.4,53.9c-5.4-0.4-10.8-0.4-16-0.2c-0.6-14.2-0.4-28.6-0.2-42.9
	c0-3.8,0.8-8.2-2.6-10.8c-5.2-0.8-10.4,0.2-15.6-0.6C3241.6,1229.2,3241.6,1225.2,3242,1221.2L3242,1221.2z M3304.1,1221.4
	c7.4-0.2,14.8-0.6,22.2,0.4c-0.4,5.8,4.4,9.8,5.8,15.2c2,6.8,5,13.2,7,20c1.6,3,4.4,5.6,3.4,9.4c4-15.6,10.2-30.4,16.4-45.1
	c7-0.2,14.2-0.4,21.4,0c0.4,21.4,0,43.3,0,64.7c-4.8,0.4-9.6,0.4-14.6,0c0.2-15,0-30,0.4-44.9c-1.8,1.6-3.6,3-5,5
	c-2.6,13.6-9.6,26-13,39.7c-4,0.6-7.8,0.6-11.8,0.2c-1.2-7.6-6.6-13.8-6.6-21.6c-5.4-6.6-5.6-16-9.8-23.4
	c-2.8,5.4-0.6,11.8-1.2,17.6c-0.8,9.4,1,19-0.8,28.4c-4.8,0-10.2,1.6-14-1.8C3304.5,1264,3303.9,1242.8,3304.1,1221.4L3304.1,1221.4
	z"/>
<g>
	<path class="st1" d="M1271.9,389.2c-0.7,5.1,0.2,11.3-2.4,15.2c-31.8,48.4-37,102.9-25.4,156.3c10.1,46.8,30.8,91.2,84,108.4
		c28,9.1,87.8-6.6,106.6-32.4c17.9-24.4,36.7-48.9,50.1-75.8c23.6-47.4,46.7-95.6,63.8-145.6c19.7-57.8,34.8-117.5,48-177.3
		c12.6-56.7,21.6-114.4,29.3-172c3.6-26.9,21.7-29.4,40.3-30.9c18.1-1.4,28,11,29.8,28.5c2.4,24.9,4.6,49.9,5.9,74.9
		c2.7,54.9,3.2,110,7.4,164.8c5.2,66.2,13.3,132.2,20.2,198.2c0.2,1.5,0.2,3.3,1,4.5c7.2,11.3,14.5,22.5,21.8,33.7
		c6.5-9.3,16-17.8,19-28.1c15.8-54.8,30.3-109.9,44.6-165.1c6.1-23.6,10.6-47.6,16.4-71.3c12.6-51.6,25-103.2,38.6-154.6
		c9.5-35.8,20.6-71.2,31.3-106.7c1.3-4.2,4.7-7.7,8.7-14c15.9,13.1,33.9,23.4,44.9,38.6c7.1,9.8,5.9,27.1,4.9,40.7
		c-3.7,51.5-12,102.8-12.8,154.2c-1.3,92.2,1.2,184.9,34.1,272.7c9.7,26,29.2,48.3,45.6,74.6c-7.1,7.3-19.5,7.2-33.6,0.3
		c-29.7-14.3-52.5-34.6-71.2-62.6c-24.7-37-31.7-78.6-37.4-120.1c-8.7-64.1-12.6-128.9-18.5-193.3c-7.3,28.3-15.2,58-22.4,87.8
		c-7.6,31.7-13.3,63.9-21.9,95.3c-15.2,55.6-31.4,110.9-48.4,165.9c-4,12.8-10.5,27.1-20.4,35c-8.2,6.5-26.2,9.9-34.3,5.2
		c-13.5-7.8-27.6-21.5-32.6-35.8c-12.1-34.3-21.3-70-27.5-105.9c-9.2-52.6-15.2-105.7-21.6-158.7c-2.8-22.8-3.9-45.8-4.6-68.7
		c-0.8-25.9-0.2-51.8-5.6-78.3c-5.1,25.6-10.6,51.1-15,76.8c-4.5,26-5.5,52.9-12.2,78.3c-19.2,72-40.8,143.4-61.2,215.1
		c-13,45.8-32.8,89.2-63.7,124.5c-52.1,59.4-105.3,92.9-186.1,54.9c-28.2-13.3-53-45.8-66.5-75.5c-22-48.3-18.8-101.4,1.8-151.4
		c11.5-27.8,24.8-54.9,37.3-82.3C1265.2,387.9,1268.5,388.5,1271.9,389.2z"/>
	<path class="st1" d="M2159.5,399.6c8.4,7,19.9,12.4,24.7,21.4c27.6,51.6-19.2,133.3-76.9,126.5c-43.3-5.1-69.8-21.3-83.6-63.2
		c-23.3-70.4-17.3-136.2,26.8-197.3c16.7-23.2,42-29.6,66.4-27.3c11.4,1.1,25.9,18.7,30.8,31.8c13.5,36.1-2,69.3-22.2,98.1
		c-13.4,19-33.6,33.1-50.8,49.4c-2.7,2.6-7.8,4.4-8.4,7.3c-5,25.3,9,45.3,23.5,62c6.3,7.3,25.3,8,37.1,5.3
		c19.7-4.5,38.5-47.1,33.7-69.1c-2.8-13.1-5.2-26.4-7.7-39.5C2155.2,403.1,2157.3,401.4,2159.5,399.6z M2059.2,417
		c35.2-27.6,45.9-63.3,55.7-98.8c1.9-6.9-4.9-16.2-8.3-26.2C2061.3,325.1,2065.2,370.4,2059.2,417z"/>
</g>
<g>
	<path class="st1" d="M304.3,503.4c2.7-43,5.6-82.2,7.6-121.3c1.7-32.8,1.7-65.7,3.6-98.4c2.8-48.3,5.6-96.7,10.2-144.9
		c6.6-68.4,55.3-112.7,123.6-89.2c8.7,3,17.3,10.6,22.5,18.4c29.7,44.4,36.4,93.2,19.1,143.3c-9,25.9-24.7,49.4-37.4,73.9
		c-2.4-0.9-4.7-1.8-7.1-2.7c3.1-31,9.4-62.1,8.4-93c-1.2-37.4-1.8-76.6-37.1-103.4c-18.9-14.4-33.4-12.4-43.1,9.5
		c-17.1,38.4-14.8,78.3-10.1,118.5c2.4,20.4,4.3,40.9,4.7,61.4c1.4,72.2,7.2,144.5-4.6,216.5c-0.2,1.5-0.6,3-1,4.5
		c-8.2,32.7-7.9,31.9,24.3,47.9c20.3,10.1,39.5,22.5,58.7,34.6c40.6,25.6,84.6,42.5,132.7,41c32.9-1,65.7-8.7,98-13.4
		c-16,41.9-52.9,60.7-93.8,71.2c-50.4,13-101.6,13.9-150-9.8c-31.9-15.6-63.6-31.7-94.1-49.7c-21.3-12.6-26.3-12.7-42.2,7.1
		c-6.8,8.4-15.1,17.1-24.7,21.5c-51.7,23.7-105.2,32.1-162.6,22.9c-37.6-6-68.1-20.4-93.4-47.4c-22.4-24-22.3-65.2,2.3-86.6
		c29-25.3,62.5-41.3,101.5-49.4c52.2-10.9,102.3-5.5,152.9,5.7C281.3,493.9,288.9,497.7,304.3,503.4z M274.9,569.8
		c-39.6-15.9-75.7-33.5-113.7-44.9c-33.2-10-68.4-12.6-101.8,4.1c-14.2,7.1-31,10.9-32.2,31.2c-1.3,21.9,3.8,39.4,24.1,52.9
		c20.3,13.5,40.8,21.2,65.2,24.5C180.8,646.6,231.7,626.8,274.9,569.8z"/>
	<path class="st1" d="M676.9,337.7c-9.2,14.3-15.1,29.6-26.1,39.1c-13.5,11.7-21.2,19.3-20,41c2.1,38.4-7.1,77.7-28,111.1
		c-13.8,22.1-34.9,40.9-63.3,39.7c-30.3-1.3-55.7-13.2-68.1-45.2c-18.5-48.2-18.5-95.6-6.6-145.7c7.5-31.6,25.2-55.1,43.7-78.8
		c18.6-23.8,46.5-17.3,70.7-13c19.6,3.5,22.3,22.7,24.4,42.7c-34.7-11-62.1,3.4-76.9,30.1c-13.4,24-19.7,53.6-22.5,81.4
		c-2.5,25.1,2.1,51.4,7.2,76.5c3.3,16.2,11.6,34.9,33.2,31.6c18.9-2.9,29.1-16.6,31-36.9c2.2-23.4,6.9-46.5,10-69.8
		c4.2-30.8-5.9-57.3-30.3-84.8c20.8-4.3,39-5.5,55.1-12c19.8-8,38-20.1,56.7-30.8c10.7-6.1,23.3-20.3,30.7-17.8
		c11.5,3.8,23.9,17.3,27.6,29.3c8.4,27.5,12.2,56.5,17.1,85c3,17.2,4.7,34.6,7.4,55.8c8.4-28.9,14.2-54.8,23.5-79.5
		c12.2-32.3,25.3-64.5,41.5-94.9c9.4-17.6,24.2-33.1,39.1-46.8c8.3-7.6,22.4-13.7,31.5,2.2c7.8,13.6,1.7,31.4-13.7,37.1
		c-45.5,16.8-62.1,58.5-78.8,96.9c-14.4,32.9-19.6,69.9-27.5,105.4c-3,13.6-0.9,28.3-3.3,42.1c-2.6,15.2-10.9,31.1-27.8,27
		c-9.9-2.4-21.1-17.3-23.7-28.4c-5.6-23.5-5.3-48.4-8.8-72.5c-5.3-35.9-11.7-71.6-18-107.4C683.5,344.3,680,341.7,676.9,337.7z"/>
	<path class="st1" d="M998.8,398.1c8.3,6.1,20,10.5,24.2,18.7c25.9,50.2-4.6,124.9-64.5,128.7c-45.8,2.9-76.5-12.6-92.4-56
		c-25.3-69.2-21.4-134.7,22.4-196.4c19-26.7,47.7-42.3,76.3-33.7c7.6,2.3,16,10.8,18.9,18.4c8.7,22.1,12,44.4,3.9,69
		c-12.5,37.9-40,62.5-68.1,87.1c-12.3,10.8-19,22.6-10.9,37.9c9.9,18.4,15.3,43.4,39.7,46.3c10.5,1.2,25.2-9.4,33.4-18.7
		c17.3-19.7,24.6-43.3,16.1-70.1c-2.7-8.4-2.9-17.5-4.3-26.3C995.3,401.3,997.1,399.7,998.8,398.1z M895.5,411.5
		c3.5,1.1,7,2.2,10.5,3.3c29.6-27.1,39.2-64.7,49.4-101.6c0.9-3.4-11.6-15-14.1-13.9c-7.9,3.3-17.8,9.7-20.1,17.1
		C911.2,347.5,903.8,379.6,895.5,411.5z"/>
</g>
</svg>
